<?xml version="1.0" encoding="utf-8"?>
<!-- Generator: Adobe Illustrator 15.0.2, SVG Export Plug-In  -->
<!DOCTYPE svg PUBLIC "-//W3C//DTD SVG 1.1//EN" "http://www.w3.org/Graphics/SVG/1.1/DTD/svg11.dtd" [
	<!ENTITY ns_flows "http://ns.adobe.com/Flows/1.0/">
]>
<svg version="1.1"
	 xmlns="http://www.w3.org/2000/svg" xmlns:xlink="http://www.w3.org/1999/xlink" xmlns:a="http://ns.adobe.com/AdobeSVGViewerExtensions/3.0/"
	 x="0px" y="0px" width="23px" height="39px" viewBox="-3.104 -10.433 23 39" enable-background="new -3.104 -10.433 23 39"
	 xml:space="preserve">
<defs>
</defs>
<path fill="#FF5757" d="M7.28,7.509l1.415-5.242C8.75,2.06,8.778,1.789,8.778,1.456C8.778,0.485,8.237,0,7.156,0
	c-1.11,0-1.664,0.472-1.664,1.415c0,0.222,0.042,0.506,0.125,0.853l1.415,5.242H7.28z"/>
<path fill="#FFB85A" d="M13.916,3.848c-0.36-0.43-0.77-0.645-1.227-0.645c-0.416,0-0.881,0.243-1.394,0.728l-3.89,3.619L7.53,7.8
	l5.325-1.269c1.026-0.236,1.539-0.749,1.539-1.54C14.395,4.59,14.235,4.209,13.916,3.848z"/>
<path fill="#FFE04A" d="M12.689,9.298L7.53,7.884l-0.125,0.25l3.765,3.724c0.499,0.499,0.991,0.749,1.477,0.749
	c0.388,0,0.749-0.159,1.082-0.479c0.36-0.346,0.541-0.755,0.541-1.227C14.27,10.096,13.743,9.562,12.689,9.298z"/>
<path fill="#71FF71" d="M8.653,13.529L7.28,8.567h-0.25l-1.373,4.962c-0.083,0.348-0.125,0.534-0.125,0.755
	c0,0.999,0.541,1.448,1.623,1.448s1.623-0.439,1.623-1.466C8.778,14.032,8.736,13.835,8.653,13.529z"/>
<path fill="#5BEFE4" d="M1.623,9.298C0.541,9.576,0,10.109,0,10.9c0,0.402,0.146,0.777,0.437,1.123
	c0.333,0.416,0.728,0.625,1.186,0.625c0.471,0,0.999-0.264,1.581-0.791l3.703-3.724l-0.083-0.25L1.623,9.298z"/>
<path fill="#5A7AFF" d="M3.016,3.932C2.544,3.446,2.094,3.204,1.664,3.204c-0.402,0-0.77,0.173-1.103,0.52
	C0.187,4.098,0,4.535,0,5.034c0,0.763,0.527,1.276,1.581,1.54L6.823,7.8l0.083-0.25L3.016,3.932z"/>
<polygon fill="#FF5757" points="7.405,7.551 7.28,7.509 7.031,7.509 6.906,7.551 6.823,7.8 6.823,7.884 6.906,8.133 7.031,8.175 
	7.28,8.175 7.405,8.133 7.53,7.884 7.53,7.8 "/>
</svg>
