<?xml version="1.0" encoding="utf-8"?>
<!-- Generator: Adobe Illustrator 15.0.2, SVG Export Plug-In  -->
<!DOCTYPE svg PUBLIC "-//W3C//DTD SVG 1.1//EN" "http://www.w3.org/Graphics/SVG/1.1/DTD/svg11.dtd" [
	<!ENTITY ns_flows "http://ns.adobe.com/Flows/1.0/">
]>
<svg version="1.1"
	 xmlns="http://www.w3.org/2000/svg" xmlns:xlink="http://www.w3.org/1999/xlink" xmlns:a="http://ns.adobe.com/AdobeSVGViewerExtensions/3.0/"
	 x="0px" y="0px" width="409px" height="99px" viewBox="-12.639 -24.834 409 99" enable-background="new -12.639 -24.834 409 99"
	 xml:space="preserve">
<defs>
</defs>
<path fill="#5A3C19" d="M38.446,3.225c0.319,3.939,0.649,7.483,0.99,10.634v0.191c0,0.319-0.331,0.479-0.99,0.479
	c-0.277,0-0.49-0.149-0.638-0.447c-1.491-3.448-3.3-6.003-5.429-7.664c-2.619-1.788-5.609-2.683-8.973-2.683
	c-5.237,0-9.463,2.257-12.678,6.77c-2.832,4.002-4.247,9.026-4.247,15.072c0,6.344,1.862,11.506,5.588,15.487
	c3.257,3.491,7.238,5.236,11.943,5.236c3.896,0,7.195-0.84,9.899-2.522c2.278-1.426,4.321-3.576,6.131-6.451
	c0.128-0.212,0.34-0.318,0.639-0.318c0.297,0,0.585,0.106,0.862,0.318c0.255,0.171,0.383,0.352,0.383,0.543
	c0,0.192-0.064,0.383-0.192,0.575c-4.151,7.686-10.325,11.528-18.521,11.528c-7.28,0-13.103-2.544-17.467-7.632
	C1.916,37.894,0,32.347,0,25.705c0-7.557,2.469-13.624,7.409-18.201c4.278-4.002,9.59-6.003,15.934-6.003
	c2.853,0,5.407,0.33,7.665,0.99c2.043,0.617,3.768,0.926,5.173,0.926C36.839,3.417,37.595,3.354,38.446,3.225z"/>
<path fill="#5A3C19" d="M64.216,46.366c-1.555,1.384-3.065,2.342-4.535,2.874c-1.362,0.49-2.959,0.734-4.79,0.734
	c-2.385,0-4.29-0.691-5.716-2.076c-1.214-1.192-1.82-2.703-1.82-4.534c0-2.427,0.745-4.342,2.236-5.748
	c1.085-1.085,3.672-2.245,7.759-3.48c2.47-0.745,4.194-1.479,5.173-2.203c0.958-0.746,1.438-1.575,1.438-2.491v-1.693
	c0-4.471-1.395-6.706-4.183-6.706c-1.832,0-3.311,0.522-4.439,1.565c-0.788,0.788-1.181,1.862-1.181,3.225
	c0,0.831-0.437,1.523-1.31,2.076c-0.788,0.49-1.746,0.734-2.874,0.734c-1.171,0-1.756-0.585-1.756-1.757
	c0-1.979,1.33-3.788,3.991-5.428c2.363-1.447,4.95-2.172,7.759-2.172c3.449,0,5.822,0.725,7.121,2.172
	c1.127,1.256,1.681,3.32,1.661,6.194L68.623,41.8c-0.065,3.704,0.755,5.556,2.458,5.556c0.597,0,1.128-0.17,1.597-0.511
	c0.255-0.148,0.447-0.223,0.575-0.223c0.191,0,0.361,0.117,0.511,0.351c0.148,0.213,0.223,0.426,0.223,0.639
	c0,0.149-0.085,0.277-0.255,0.383c-1.533,1.107-3.152,1.661-4.854,1.661C66.557,49.655,65.004,48.559,64.216,46.366z M63.96,32.955
	c-0.638,0.83-2.64,1.863-6.003,3.097c-2.043,0.766-3.481,1.682-4.311,2.746c-0.745,0.958-1.117,2.171-1.117,3.64
	c0,1.554,0.531,2.821,1.597,3.8c0.915,0.831,1.969,1.245,3.161,1.245c2.064,0,3.736-0.607,5.014-1.82
	c1.064-1.021,1.596-2.245,1.596-3.672L63.96,32.955z"/>
<path fill="#5A3C19" d="M87.111,22.832c-0.042,1.533-0.063,4.109-0.063,7.728v9.612c0,3.406,0.169,5.407,0.511,6.003
	c0.319,0.575,1.724,0.969,4.215,1.182c0.383,0.063,0.575,0.351,0.575,0.862c0,0.468-0.192,0.702-0.575,0.702
	c-2.81-0.084-5.152-0.127-7.025-0.127c-1.916,0-4.279,0.043-7.089,0.127c-0.383,0-0.575-0.233-0.575-0.702
	c0-0.511,0.192-0.799,0.575-0.862c2.32-0.17,3.63-0.564,3.928-1.182c0.447-0.809,0.671-3.034,0.671-6.674v-9.005
	c0-2.192-0.043-4.727-0.128-7.6c-1.383,0-3.172,0.064-5.364,0.192c-0.256,0-0.383-0.085-0.383-0.256l0.447-1.98
	c0.128-0.255,0.352-0.383,0.671-0.383c1.127,0.042,2.671,0.063,4.629,0.063l-0.063-3.448c0-5.066,1.555-9.325,4.663-12.773
	C89.261,1.437,92.508,0,96.467,0c2.257,0,3.385,0.607,3.385,1.821c0,1.213-0.288,2.246-0.862,3.097
	C98.521,5.62,98,5.972,97.426,5.972c-0.554,0-1.309-0.394-2.268-1.182l-0.319-0.288c-0.938-0.745-1.991-1.117-3.162-1.117
	c-2.085,0-3.438,2.203-4.055,6.61c-0.298,2.257-0.447,5.747-0.447,10.474c2.704,0,5.365-0.064,7.983-0.192
	c0.298,0,0.447,0.107,0.447,0.32l-0.702,1.98c-0.128,0.255-0.31,0.383-0.543,0.383C92.806,22.875,90.389,22.832,87.111,22.832z"/>
<path fill="#5A3C19" d="M105.824,31.868c-0.127,1.022-0.192,1.906-0.192,2.651c0,3.874,1.14,7.046,3.417,9.515
	c1.873,2.002,3.98,3.002,6.322,3.002c3.768,0,6.738-1.533,8.909-4.599c0.106-0.17,0.256-0.255,0.447-0.255
	c0.256,0,0.511,0.117,0.767,0.351c0.234,0.171,0.351,0.342,0.351,0.512c0,0.234-0.127,0.511-0.383,0.83
	c-2.704,4.066-6.366,6.099-10.984,6.099c-4.407,0-7.941-1.542-10.602-4.63c-2.363-2.768-3.544-6.258-3.544-10.474
	c0-4.747,1.511-8.632,4.534-11.655c2.596-2.618,5.748-3.928,9.452-3.928c3.47,0,6.333,1.246,8.591,3.737
	c1.915,2.129,2.979,4.748,3.193,7.855c0,0.319-0.106,0.585-0.319,0.798c-0.214,0.213-0.437,0.32-0.671,0.32
	c-4.407-0.128-8.696-0.192-12.869-0.192C109.326,31.805,107.187,31.827,105.824,31.868z M106.207,29.569
	c1.277,0.043,3.065,0.064,5.365,0.064c2.958,0,5.78-0.085,8.462-0.255c0.425,0,0.639-0.288,0.639-0.862
	c-0.213-2.341-0.958-4.193-2.235-5.556c-1.15-1.192-2.522-1.789-4.12-1.789c-1.958,0-3.683,0.82-5.173,2.459
	C107.782,25.099,106.803,27.079,106.207,29.569z"/>
<path fill="#FF5757" d="M143.887,12.964l2.172-8.047c0.084-0.319,0.127-0.735,0.127-1.246c0-1.49-0.831-2.235-2.491-2.235
	c-1.703,0-2.555,0.725-2.555,2.171c0,0.341,0.063,0.777,0.191,1.309l2.171,8.047H143.887z"/>
<path fill="#5A3C19" d="M200.982,3.225c0.319,3.939,0.649,7.483,0.99,10.634v0.191c0,0.319-0.331,0.479-0.99,0.479
	c-0.277,0-0.49-0.149-0.639-0.447c-1.49-3.448-3.3-6.003-5.428-7.664c-2.619-1.788-5.61-2.683-8.974-2.683
	c-5.237,0-9.463,2.257-12.676,6.77c-2.832,4.002-4.248,9.026-4.248,15.072c0,6.344,1.862,11.506,5.588,15.487
	c3.257,3.491,7.238,5.236,11.943,5.236c3.896,0,7.195-0.84,9.899-2.522c2.277-1.426,4.321-3.576,6.131-6.451
	c0.127-0.212,0.34-0.318,0.639-0.318c0.298,0,0.585,0.106,0.862,0.318c0.255,0.171,0.383,0.352,0.383,0.543
	c0,0.192-0.064,0.383-0.192,0.575c-4.151,7.686-10.325,11.528-18.521,11.528c-7.28,0-13.103-2.544-17.467-7.632
	c-3.833-4.449-5.748-9.995-5.748-16.637c0-7.557,2.469-13.624,7.408-18.201c4.279-4.002,9.59-6.003,15.935-6.003
	c2.852,0,5.406,0.33,7.664,0.99c2.043,0.617,3.769,0.926,5.173,0.926C199.375,3.417,200.13,3.354,200.982,3.225z"/>
<path fill="#5A3C19" d="M223.75,19.287c4.215,0,7.674,1.533,10.378,4.599c2.469,2.789,3.704,6.312,3.704,10.569
	c0,4.812-1.522,8.707-4.566,11.688c-2.598,2.554-5.77,3.832-9.516,3.832c-4.257,0-7.727-1.565-10.41-4.694
	c-2.385-2.788-3.576-6.258-3.576-10.41c0-4.79,1.564-8.706,4.694-11.75C217.097,20.565,220.194,19.287,223.75,19.287z
	 M223.75,21.235c-2.725,0-4.844,1.267-6.354,3.8c-1.384,2.342-2.076,5.546-2.076,9.612c0,4.79,0.883,8.313,2.651,10.569
	c1.426,1.853,3.353,2.778,5.779,2.778c2.747,0,4.896-1.266,6.45-3.799c1.426-2.341,2.139-5.524,2.139-9.548
	c0-4.854-0.915-8.42-2.745-10.697C228.125,22.14,226.177,21.235,223.75,21.235z"/>
<path fill="#5A3C19" d="M258.748,19.287c4.215,0,7.674,1.533,10.378,4.599c2.469,2.789,3.704,6.312,3.704,10.569
	c0,4.812-1.522,8.707-4.566,11.688c-2.597,2.554-5.77,3.832-9.516,3.832c-4.258,0-7.728-1.565-10.41-4.694
	c-2.385-2.788-3.576-6.258-3.576-10.41c0-4.79,1.564-8.706,4.694-11.75C252.096,20.565,255.193,19.287,258.748,19.287z
	 M258.748,21.235c-2.725,0-4.843,1.267-6.354,3.8c-1.384,2.342-2.075,5.546-2.075,9.612c0,4.79,0.883,8.313,2.65,10.569
	c1.425,1.853,3.353,2.778,5.779,2.778c2.746,0,4.896-1.266,6.45-3.799c1.427-2.341,2.14-5.524,2.14-9.548
	c0-4.854-0.916-8.42-2.746-10.697C263.122,22.14,261.175,21.235,258.748,21.235z"/>
<path fill="#5A3C19" d="M287.583,33.816c1.383-1.299,2.522-2.341,3.417-3.129l3.704-3.736c1.873-1.873,2.81-3.139,2.81-3.8
	c0-0.724-0.958-1.118-2.873-1.181c-0.343,0-0.512-0.277-0.512-0.831c0-0.489,0.169-0.734,0.512-0.734
	c1.276,0.042,3.33,0.064,6.162,0.064c2.002,0,3.896-0.064,5.684-0.192c0.342,0,0.512,0.266,0.512,0.799
	c0,0.49-0.17,0.766-0.512,0.83c-1.447,0.127-2.672,0.437-3.672,0.926c-0.853,0.426-2.555,1.799-5.108,4.119l-3.321,3.002
	c-1.321,1.256-2.193,2.107-2.619,2.555c3.619,4.258,7.025,8.025,10.219,11.304c1.447,1.468,2.703,2.448,3.769,2.938
	c0.617,0.32,1.628,0.542,3.032,0.67c0.384,0.064,0.575,0.331,0.575,0.799s-0.191,0.702-0.575,0.702
	c-2.576-0.127-4.301-0.191-5.172-0.191c-1.533,0-2.821,0.021-3.864,0.063c-0.958-1.362-1.724-2.363-2.299-3.001
	c-3.535-3.853-6.823-7.557-9.867-11.112v4.886c0,3.981,0.128,6.206,0.383,6.674c0.341,0.638,1.607,1.033,3.8,1.181
	c0.341,0.064,0.512,0.331,0.512,0.799s-0.171,0.702-0.512,0.702c-2.789-0.084-4.854-0.127-6.194-0.127
	c-1.66,0-3.886,0.043-6.674,0.127c-0.341,0-0.511-0.233-0.511-0.702s0.17-0.735,0.511-0.799c1.938-0.148,3.076-0.543,3.417-1.181
	c0.383-0.66,0.575-2.863,0.575-6.61V10.857c0-2.916-0.171-4.726-0.512-5.428c-0.427-0.83-1.001-1.246-1.725-1.246l-2.267,0.128
	c-0.363,0-0.543-0.298-0.543-0.894c0-0.426,0.245-0.692,0.734-0.798c2.618-0.532,5.492-1.405,8.621-2.619
	c0.47,0,0.703,0.15,0.703,0.447c-0.214,5.003-0.319,10.176-0.319,15.519V33.816z"/>
<path fill="#5A3C19" d="M316.897,30.399c0-2.724-0.171-4.502-0.512-5.333c-0.382-0.873-1.021-1.31-1.915-1.31l-2.428,0.128
	c-0.341,0-0.511-0.288-0.511-0.862c0-0.404,0.267-0.692,0.798-0.863c3.279-0.787,6.174-1.681,8.687-2.682
	c0.511,0,0.767,0.202,0.767,0.606c-0.171,4.151-0.256,7.898-0.256,11.24V39.5c0,4.023,0.127,6.27,0.383,6.738
	c0.319,0.574,1.617,0.948,3.896,1.118c0.34,0.063,0.51,0.298,0.51,0.702c0,0.575-0.17,0.862-0.51,0.862
	c-2.619-0.084-4.738-0.127-6.355-0.127c-1.916,0-4.141,0.043-6.674,0.127c-0.341,0-0.511-0.287-0.511-0.862
	c0-0.404,0.17-0.639,0.511-0.702c1.98-0.213,3.183-0.585,3.608-1.118c0.341-0.468,0.512-2.714,0.512-6.738V30.399z M318.845,1.533
	c0.979,0,1.852,0.426,2.618,1.277c0.66,0.746,0.989,1.533,0.989,2.363c0,1.086-0.414,2.002-1.244,2.747
	c-0.725,0.618-1.512,0.926-2.363,0.926c-1.021,0-1.917-0.404-2.682-1.213c-0.683-0.703-1.022-1.522-1.022-2.459
	c0-0.979,0.436-1.852,1.309-2.619C317.174,1.874,317.973,1.533,318.845,1.533z"/>
<path fill="#5A3C19" d="M337.11,31.868c-0.127,1.022-0.191,1.906-0.191,2.651c0,3.874,1.138,7.046,3.416,9.515
	c1.873,2.002,3.979,3.002,6.323,3.002c3.769,0,6.737-1.533,8.908-4.599c0.106-0.17,0.255-0.255,0.447-0.255
	c0.256,0,0.511,0.117,0.766,0.351c0.234,0.171,0.353,0.342,0.353,0.512c0,0.234-0.128,0.511-0.384,0.83
	c-2.704,4.066-6.366,6.099-10.984,6.099c-4.407,0-7.941-1.542-10.603-4.63c-2.362-2.768-3.543-6.258-3.543-10.474
	c0-4.747,1.51-8.632,4.534-11.655c2.597-2.618,5.748-3.928,9.451-3.928c3.469,0,6.333,1.246,8.59,3.737
	c1.917,2.129,2.98,4.748,3.193,7.855c0,0.319-0.106,0.585-0.319,0.798c-0.213,0.213-0.436,0.32-0.67,0.32
	c-4.407-0.128-8.696-0.192-12.868-0.192C340.61,31.805,338.472,31.827,337.11,31.868z M337.493,29.569
	c1.277,0.043,3.065,0.064,5.365,0.064c2.957,0,5.779-0.085,8.462-0.255c0.425,0,0.638-0.288,0.638-0.862
	c-0.213-2.341-0.958-4.193-2.234-5.556c-1.149-1.192-2.523-1.789-4.12-1.789c-1.958,0-3.684,0.82-5.173,2.459
	C339.068,25.099,338.087,27.079,337.493,29.569z"/>
<path fill="#5A3C19" d="M381.496,20.021c0.042,1.384,0.225,3.715,0.543,6.994v0.191c0,0.256-0.287,0.384-0.862,0.384
	c-0.319,0-0.534-0.149-0.639-0.447c-1.47-4.023-3.928-6.035-7.377-6.035c-1.641,0-2.905,0.479-3.8,1.437
	c-0.789,0.83-1.181,1.906-1.181,3.225c0,1.086,0.383,1.98,1.148,2.683c0.809,0.766,2.3,1.597,4.472,2.491l2.362,0.99
	c2.979,1.234,5.014,2.619,6.1,4.151c0.894,1.235,1.341,2.81,1.341,4.726c0,2.896-1.044,5.184-3.129,6.865
	c-1.916,1.533-4.451,2.299-7.602,2.299c-2.703,0-5.449-0.543-8.238-1.628c-0.427-1.554-0.884-3.651-1.373-6.291l-0.063-0.511
	c0-0.362,0.266-0.543,0.8-0.543c0.34,0,0.573,0.127,0.701,0.382c0.937,2.172,2.268,3.864,3.992,5.078
	c1.468,1.065,3.002,1.597,4.598,1.597c1.873,0,3.342-0.596,4.408-1.788c0.935-1.022,1.403-2.299,1.403-3.832
	c0-1.363-0.437-2.501-1.309-3.416c-0.852-0.873-2.226-1.714-4.118-2.523l-2.301-0.989c-3.022-1.299-5.034-2.629-6.035-3.992
	c-0.853-1.171-1.276-2.735-1.276-4.695c0-2.299,0.946-4.172,2.842-5.62c1.66-1.277,3.692-1.917,6.099-1.917
	c1.17,0,2.618,0.203,4.343,0.607c0.767,0.127,1.606,0.191,2.522,0.191C380.356,20.085,380.9,20.064,381.496,20.021z"/>
<path fill="#FFB85A" d="M154.074,7.345c-0.554-0.661-1.182-0.99-1.884-0.99c-0.639,0-1.353,0.373-2.139,1.117l-5.972,5.557
	l0.191,0.383l8.175-1.948c1.575-0.362,2.363-1.149,2.363-2.363C154.809,8.484,154.563,7.897,154.074,7.345z"/>
<path fill="#FFE04A" d="M152.19,15.71l-7.919-2.171l-0.191,0.383l5.779,5.715c0.767,0.767,1.522,1.149,2.268,1.149
	c0.595,0,1.149-0.245,1.661-0.734c0.553-0.532,0.83-1.16,0.83-1.884C154.617,16.935,153.807,16.116,152.19,15.71z"/>
<path fill="#71FF71" d="M145.995,22.245l-2.107-7.579h-0.383l-2.107,7.579c-0.127,0.532-0.192,0.799-0.192,1.139
	c0,1.533,0.831,2.215,2.491,2.215c1.66,0,2.491-0.66,2.491-2.236C146.187,23.001,146.123,22.714,145.995,22.245z"/>
<path fill="#5BEFE4" d="M135.202,15.71c-1.661,0.426-2.491,1.246-2.491,2.459c0,0.617,0.224,1.192,0.67,1.724
	c0.511,0.638,1.118,0.958,1.82,0.958c0.724,0,1.533-0.404,2.427-1.213l5.684-5.715l-0.128-0.383L135.202,15.71z"/>
<path fill="#5A7AFF" d="M137.341,7.472c-0.725-0.745-1.416-1.117-2.076-1.117c-0.618,0-1.181,0.266-1.692,0.798
	c-0.575,0.574-0.862,1.246-0.862,2.012c0,1.171,0.809,1.959,2.427,2.363l8.047,1.884l0.128-0.383L137.341,7.472z"/>
<polygon fill="#FF5757" points="144.079,13.029 143.887,12.964 143.504,12.964 143.313,13.029 143.185,13.412 143.185,13.54 
	143.313,13.923 143.504,13.986 143.887,13.986 144.079,13.923 144.271,13.54 144.271,13.412 "/>
</svg>
