<svg xmlns="http://www.w3.org/2000/svg" width="1062" height="1269" viewBox="0 0 1062 1269">
  <defs>
    <style>
      .cls-1 {
        fill: none;
        stroke: #09c;
        stroke-width: 5px;
        fill-rule: evenodd;
      }
    </style>
  </defs>
  <path id="Y.K.Portfolio" class="cls-1" d="M95.936,1202.78v20.34q0,15.8-2.2,19.21-1.953,3.165-11.8,3.99a1.861,1.861,0,0,0-1.872,2.11c0,1.47.623,2.2,1.872,2.2q11.475-.645,20.67-0.65,8.218,0,22.705.65c0.651,0,.977-0.73.977-2.2,0-1.25-.435-1.95-1.3-2.11q-11.8-.825-13.672-3.99-1.873-3.09-1.872-17.5v-21.89l0.163-7.32q3.986-6.51,7.487-12.29l15.543-24.66q9.359-15.135,12.452-17.5,4.23-3.5,11.718-4.23,1.3-.165,1.3-1.95c0-1.79-.434-2.69-1.3-2.69q-15.544.825-17.578,0.82-3.988,0-19.45-.82c-1.139,0-1.709.9-1.709,2.69a1.723,1.723,0,0,0,1.709,1.95c4.232,0.22,7.243.81,9.034,1.79a4.765,4.765,0,0,1,2.6,4.56q0,2.76-5.127,11.72l-13.835,24.49q-3.338,5.37-5.534,9.28c-0.435-.7-1.33-2.17-2.685-4.39q-1.873-3.18-3.255-5.29l-15.219-25.15q-4.8-8.145-4.8-10.99a4.337,4.337,0,0,1,1.709-3.9q2.033-1.3,9.44-2.12,1.3-.165,1.3-1.95c0-1.79-.435-2.69-1.3-2.69q-10.58.825-21.24,0.82-9.766,0-21.159-.82c-0.869,0-1.3.9-1.3,2.69q0,1.785,1.3,1.95,7.812,0.66,11.556,4.23,2.685,2.685,12.37,18.48l15.3,24.98q1.221,2.04,3.092,5.29,2.766,4.635,3.743,6.18Zm78.288,33.2a9.654,9.654,0,0,0-3.256,7.65,9.332,9.332,0,0,0,2.523,6.51,10.169,10.169,0,0,0,14.079.65,9.11,9.11,0,0,0,3.255-7.16,9.99,9.99,0,0,0-2.6-7,9.321,9.321,0,0,0-7.243-3.17,9.662,9.662,0,0,0-6.754,2.52h0Zm105.062-3.5q6.836,7.575,14.729,17.66,4.964-.165,12.126-0.16,7.893,0,15.055.65c0.977,0,1.465-.73,1.465-2.2,0-1.3-.488-2-1.465-2.11q-7.323-.9-10.742-2.69-5.7-3.09-17.171-15.46-37.435-41.34-40.446-44.84c0.542-.54,2.034-1.96,4.476-4.23q3.581-3.345,6.348-5.95l15.95-14.64q15.217-13.995,19.694-16.85a32.518,32.518,0,0,1,14-4.72c1.03-.11,1.547-0.81,1.547-2.12q0-2.52-1.465-2.52-10.581.825-19.206,0.82-6.756,0-18.31-.33c-1.14,0-1.709.79-1.709,2.36a1.689,1.689,0,0,0,1.627,1.95,36.026,36.026,0,0,1,7.08,1.14,2.572,2.572,0,0,1,1.791,2.53q0,3.57-12.37,15.54l-18.311,17.98q-6.591,6.6-13.834,12.7v-24.98q0-17.415,2.2-21.08,1.871-2.925,11.963-3.99a1.67,1.67,0,0,0,1.546-1.95c0-1.79-.516-2.69-1.546-2.69q-10.5.825-20.833,0.82-11.068,0-21.892-.82c-0.868,0-1.3.9-1.3,2.69q0,1.785,1.3,1.95,11.149,0.81,13.347,3.99a10.873,10.873,0,0,1,1.464,4.64q0.406,3.66.407,16.44v58.43q0,18.39-2.034,21.89-1.953,3.165-12.37,3.99c-0.977.11-1.465,0.81-1.465,2.11,0,1.47.488,2.2,1.465,2.2q11.882-.645,21.078-0.65,8.219,0,21.728.65c0.977,0,1.465-.73,1.465-2.2,0-1.3-.488-2-1.465-2.11-7.542-.66-11.882-1.98-13.021-3.99a10.873,10.873,0,0,1-1.627-4.48q-0.41-3.255-.407-14.73v-34.5q30.19,34.1,39.144,43.86h0Zm59.407,3.5a9.656,9.656,0,0,0-3.255,7.65,9.327,9.327,0,0,0,2.523,6.51,10.167,10.167,0,0,0,14.078.65,9.108,9.108,0,0,0,3.256-7.16,9.994,9.994,0,0,0-2.6-7,9.323,9.323,0,0,0-7.243-3.17,9.667,9.667,0,0,0-6.755,2.52h0Zm79.59-39.88q50.128,0,50.13-33.12,0-30.84-42.969-30.84-1.14,0-16.032.49c-5.968.22-9.793,0.32-11.474,0.32q-8.788,0-22.38-.65c-0.976,0-1.465.9-1.465,2.69q0,1.785,1.465,1.95,12.126,0.9,14,3.99,1.871,3.015,1.871,18.39v61.12q0,18.39-2.034,21.89a5.454,5.454,0,0,1-3.011,2.44c-1.737.71-4.911,1.22-9.522,1.55-0.868.16-1.3,0.86-1.3,2.11,0,1.47.434,2.2,1.3,2.2q12.532-.645,21.729-0.65,8.708,0,21.81.65c1.139,0,1.709-.73,1.709-2.2a1.807,1.807,0,0,0-1.709-2.11c-7.6-.66-12.072-1.98-13.428-3.99a9.412,9.412,0,0,1-1.465-4.32q-0.408-3.33-.407-14.56v-27.83q5.778,0.48,13.184.48h0ZM405.1,1161.76q0-17.415,2.36-20.42,2.686-3.51,14.486-3.5,14.077,0,22.054,5.94,8.952,6.675,8.952,19.85,0,11.8-7.731,18.72-9.116,8.22-27.1,8.22a78.689,78.689,0,0,1-13.021-.98v-27.83Zm94.32,23.11q-11.962,11.64-11.963,29.95,0,15.87,9.115,26.53,10.254,11.97,26.53,11.96a33.272,33.272,0,0,0,24.251-9.76q11.637-11.4,11.637-29.79,0-16.275-9.44-26.93-10.335-11.73-26.448-11.72a32.949,32.949,0,0,0-23.682,9.76h0Zm38.574,2.12q7,8.715,7,27.26,0,15.39-5.453,24.33-5.94,9.69-16.438,9.69a17.616,17.616,0,0,1-14.73-7.08q-6.756-8.625-6.755-26.94,0-15.54,5.29-24.49,5.778-9.69,16.195-9.69a18.228,18.228,0,0,1,14.892,6.92h0Zm62.093-9.68q0-1.47-1.953-1.47a110.366,110.366,0,0,1-21.81,6.76,2.438,2.438,0,0,0-2.034,2.36c0,1.35.515,2.03,1.546,2.03l5.941-.33q2.766,0,4.557,3.5,1.465,3.18,1.465,13.51v23.28q0,14.64-1.628,17.01a5.035,5.035,0,0,1-2.2,1.95,28.957,28.957,0,0,1-6.673,1.06,1.651,1.651,0,0,0-1.465,1.87c0,1.19.488,1.79,1.465,1.79q10.01-.33,17.008-0.33,6.51,0,16.521.33c0.867,0,1.3-.6,1.3-1.79a1.618,1.618,0,0,0-1.3-1.87q-8.545-.57-9.929-3.01-1.14-2.115-1.139-17.01v-19.29a22.671,22.671,0,0,1,4.8-14q4.639-6.18,8.22-6.18a11.4,11.4,0,0,1,4.313,1.54,11.806,11.806,0,0,0,4.72,1.47q2.36,0,4.964-2.93a11.283,11.283,0,0,0,3.174-7.57c0-1.19-.733-2.25-2.2-3.17a13.3,13.3,0,0,0-6.836-1.55q-10.254,0-21.159,17.66,0-5.94.325-15.62h0Zm48.991,29.86-0.325,22.63q0,12.12,4.964,17.82,5.207,5.7,15.544,5.69,9.438,0,17.5-8.87a1.393,1.393,0,0,0,.489-0.97,2.7,2.7,0,0,0-.733-1.63,2.475,2.475,0,0,0-1.79-1.06,1.392,1.392,0,0,0-.977.49,14.248,14.248,0,0,1-10.5,4.56,10.43,10.43,0,0,1-8.789-4.32q-3.337-4.545-3.337-16.68l0.326-40.85q14.811,0,20.833.49a1.586,1.586,0,0,0,1.628-1.14l1.546-4.72a0.866,0.866,0,0,0-.976-0.98q-13.348.33-22.7,0.33,0-3.75.488-15.95,0-1.71-2.2-1.71a2.26,2.26,0,0,0-2.442,1.46,35.792,35.792,0,0,1-6.673,11.39,21.856,21.856,0,0,1-11.882,6.68c-1.085.22-1.627,1.03-1.627,2.44,0,1.46.542,2.2,1.627,2.2l10.336-.17Zm90.251-22.7a1.517,1.517,0,0,0,1.383-.98l1.791-5.05q0-.81-1.14-0.81-10.01.495-20.345,0.49,0-18.075,1.14-26.69,2.359-16.845,10.335-16.85a12.609,12.609,0,0,1,8.057,2.85l0.813,0.73q3.663,3.015,5.778,3.01,2.2,0,3.988-2.68a13.78,13.78,0,0,0,2.2-7.9q0-4.635-8.626-4.64-15.136,0-24.821,10.99Q708,1150.125,708,1169.49l0.163,8.79q-7.488,0-11.8-.16a1.738,1.738,0,0,0-1.709.98l-1.139,5.04c0,0.44.325,0.65,0.976,0.65q8.382-.48,13.672-0.49,0.324,11,.326,19.37v22.95q0,13.92-1.709,17.01-1.141,2.355-10.01,3.01c-0.977.16-1.465,0.9-1.465,2.2,0,1.19.488,1.79,1.465,1.79q10.742-.33,18.066-0.33,7.161,0,17.9.33c0.977,0,1.465-.6,1.465-1.79,0-1.3-.488-2.04-1.465-2.2q-9.522-.81-10.742-3.01-1.3-2.28-1.3-15.3v-24.49q0-13.845.163-19.7,12.531,0,18.473.33h0Zm27.181,0.4q-11.963,11.64-11.963,29.95,0,15.87,9.115,26.53,10.253,11.97,26.529,11.96a33.273,33.273,0,0,0,24.252-9.76q11.637-11.4,11.637-29.79,0-16.275-9.44-26.93-10.336-11.73-26.449-11.72a32.946,32.946,0,0,0-23.681,9.76h0Zm38.574,2.12q7,8.715,7,27.26,0,15.39-5.453,24.33-5.942,9.69-16.439,9.69a17.615,17.615,0,0,1-14.729-7.08q-6.756-8.625-6.755-26.94,0-15.54,5.29-24.49,5.777-9.69,16.194-9.69a18.23,18.23,0,0,1,14.893,6.92h0Zm45.166,56.8c-0.814,1.63-3.771,2.64-8.87,3.01q-1.3.255-1.3,2.04c0,1.19.433,1.79,1.3,1.79q10.659-.33,17.334-0.33,5.859,0,15.869.33c0.976,0,1.465-.6,1.465-1.79a1.787,1.787,0,0,0-1.547-2.04q-8.137-.81-9.521-3.01-1.3-2.19-1.3-17.17v-59.65q0-24.255.651-39.63c0-.92-0.543-1.39-1.628-1.39a167.774,167.774,0,0,1-22.623,6.68,2.172,2.172,0,0,0-1.872,2.36q0,1.95,1.3,1.95l5.859-.32a5.064,5.064,0,0,1,5.209,3.33q1.3,3.255,1.3,13.67v73q0,14.16-1.628,17.17h0Zm48.5-17.17q0,15.39-1.3,17.17-1.629,2.04-9.2,2.85a1.568,1.568,0,0,0-1.3,1.79c0,1.47.433,2.2,1.3,2.2q9.682-.33,17.008-0.33,6.183,0,16.2.33c0.867,0,1.3-.73,1.3-2.2a1.57,1.57,0,0,0-1.3-1.79q-8.709-.645-9.929-2.85-0.977-1.785-.976-17.17v-20.83q0-12.78.651-28.65c0-1.03-.651-1.54-1.953-1.54a162.222,162.222,0,0,1-22.136,6.83c-1.356.44-2.034,1.17-2.034,2.2,0,1.46.433,2.2,1.3,2.2l6.185-.33a5.011,5.011,0,0,1,4.883,3.34q1.3,3.165,1.3,13.59v23.19Zm-1.14-94.16a8.57,8.57,0,0,0-.732,12.94,9.224,9.224,0,0,0,16.032-6.26,8.969,8.969,0,0,0-2.523-6.02,8.462,8.462,0,0,0-12.777-.66h0Zm50.619,52.41q-11.963,11.64-11.963,29.95,0,15.87,9.114,26.53,10.254,11.97,26.53,11.96a33.273,33.273,0,0,0,24.252-9.76q11.634-11.4,11.636-29.79,0-16.275-9.439-26.93-10.336-11.73-26.449-11.72a32.946,32.946,0,0,0-23.681,9.76h0Zm38.574,2.12q7,8.715,7,27.26,0,15.39-5.453,24.33-5.942,9.69-16.439,9.69a17.615,17.615,0,0,1-14.729-7.08q-6.756-8.625-6.755-26.94,0-15.54,5.29-24.49,5.777-9.69,16.194-9.69a18.23,18.23,0,0,1,14.893,6.92h0Z"/>
</svg>
